<svg width="132" height="132" viewBox="0 0 132 132" fill="none" xmlns="http://www.w3.org/2000/svg"><circle opacity="0.25" cx="66" cy="66" r="66" fill="#FAE23A"/><path d="M65.5054 67.9842C76.5054 67.9842 85.4974 58.9922 85.4974 47.9921C85.4974 36.992 76.5054 28 65.5054 28C54.5053 28 45.5134 36.992 45.5134 47.9921C45.5134 58.9922 54.5055 67.9842 65.5054 67.9842Z" fill="#FAE23A"/><path d="M99.8149 83.9601C99.291 82.6505 98.5927 81.4284 97.807 80.2934C93.7911 74.3568 87.5928 70.4283 80.6087 69.4679C79.7357 69.3807 78.7754 69.5552 78.0769 70.079C74.4102 72.7854 70.0452 74.1822 65.5054 74.1822C60.9656 74.1822 56.6006 72.7854 52.9339 70.079C52.2355 69.5552 51.2751 69.2933 50.4022 69.4679C43.418 70.4283 37.1324 74.3568 33.2038 80.2934C32.4181 81.4284 31.7197 82.7379 31.196 83.9601C30.9341 84.484 31.0213 85.095 31.2832 85.6189C31.9817 86.8411 32.8546 88.0634 33.6403 89.111C34.8625 90.7698 36.1721 92.2538 37.6562 93.6506C38.8784 94.8728 40.2752 96.0077 41.6722 97.1427C48.5689 102.294 56.8626 105 65.4182 105C73.9738 105 82.2675 102.293 89.1642 97.1427C90.561 96.0951 91.9578 94.8728 93.1801 93.6506C94.5769 92.2538 95.9737 90.7696 97.1961 89.111C98.069 87.976 98.8549 86.8411 99.5532 85.6189C99.9895 85.095 100.077 84.4838 99.8149 83.9601Z" fill="#FAE23A"/></svg>