<svg width="165" height="165" viewBox="0 0 165 165" fill="none" xmlns="http://www.w3.org/2000/svg"><circle cx="82.5" cy="82.5" r="82.5" fill="#E9E9E9"/><path d="M82.4994 23.6836C70.8667 23.6836 59.4953 27.1331 49.8231 33.5958C40.1509 40.0586 32.6123 49.2444 28.1607 59.9915C23.7091 70.7387 22.5443 82.5646 24.8137 93.9738C27.0832 105.383 32.6848 115.863 40.9104 124.088C49.1359 132.314 59.6159 137.916 71.025 140.185C82.4342 142.454 94.26 141.29 105.007 136.838C115.754 132.386 124.94 124.848 131.403 115.176C137.866 105.503 141.315 94.132 141.315 82.4994C141.298 66.9059 135.095 51.9561 124.069 40.9298C113.043 29.9035 98.0929 23.7012 82.4994 23.6836ZM109.36 68.1428H43.2889C42.2489 68.1428 33.6813 72.583 32.9459 71.8477C32.2106 71.1124 39.3678 83.5393 39.3678 82.4994C39.3678 81.4594 39.7809 80.4621 40.5163 79.7268C41.2516 78.9914 42.2489 78.5783 43.2889 78.5783H121.71C122.75 78.5783 123.747 78.9914 124.483 79.7268C125.218 80.4621 125.631 81.4594 125.631 82.4994C125.631 83.5393 134.832 62.5854 118.159 64.901C117.424 65.6363 110.4 68.1428 109.36 68.1428Z" fill="#0E0C0D"/><path d="M109.093 85.1305C107.604 87.8196 107.6 93.8426 107.6 93.912C107.6 93.912 107.488 117.234 90.6673 117.234C84.3806 117.234 75.5275 117.234 75.5275 117.234C63.1141 117.234 56.1016 104.511 56.1016 93.5639V69.2511C56.1016 66.4409 58.3764 64.1604 61.185 64.1604C62.5871 64.1604 63.8596 64.7316 64.7799 65.6511C65.6981 66.5727 66.2685 67.8471 66.2685 69.2511V58.9424C66.2685 56.1321 68.5433 53.8517 71.3519 53.8517C72.754 53.8517 74.0265 54.4207 74.9468 55.3423C75.865 56.2639 76.4354 57.5359 76.4354 58.9424V51.0048C76.4354 48.1922 78.7102 45.9141 81.5186 45.9141C82.9227 45.9141 84.1932 46.4831 85.1135 47.4047C86.0337 48.3263 86.602 49.5983 86.602 51.0048V57.4151C86.602 54.6025 88.8789 52.3244 91.6852 52.3244C93.0873 52.3244 94.3575 52.8934 95.2778 53.815C96.2001 54.7366 96.7684 56.0089 96.7684 57.4151V84.7242C96.8764 84.3498 96.9929 83.9799 97.1183 83.61C97.5978 82.1994 98.2071 80.8234 98.9438 79.4929C100.495 76.6868 104.025 75.6744 106.825 77.2257C106.829 77.2257 106.831 77.2277 106.836 77.2301C109.637 78.7896 110.648 82.3247 109.093 85.1305Z" fill="#FAE23A"/><path d="M68.1889 85.418C67.1373 85.418 66.2852 84.5656 66.2852 83.5143V58.9422C66.2852 56.132 68.5632 53.8516 71.3755 53.8516C72.0483 53.8516 72.6909 53.9836 73.2792 54.2215C71.4101 54.9744 70.0926 56.8045 70.0926 58.9422V83.5143C70.0926 84.5656 69.2402 85.418 68.1889 85.418Z" fill="#F1B986"/><path d="M78.3705 85.0511C77.319 85.0511 76.4668 84.1987 76.4668 83.1474V51.0027C76.4668 48.1925 78.7449 45.9121 81.5572 45.9121C82.2299 45.9121 82.8726 46.0442 83.4609 46.282C81.5917 47.0349 80.2742 48.865 80.2742 51.0027V83.1474C80.2742 84.1987 79.4218 85.0511 78.3705 85.0511Z" fill="#DCC000"/><path d="M88.5502 82.8068C87.4986 82.8068 86.6465 81.9543 86.6465 80.903V57.4129C86.6465 54.6027 88.9246 52.3223 91.7371 52.3223C92.4099 52.3223 93.0525 52.4543 93.6408 52.6922C91.7717 53.4451 90.4542 55.2752 90.4542 57.4129V80.903C90.4539 81.9546 89.6015 82.8068 88.5502 82.8068Z" fill="#DCC000"/><path d="M68.1889 85.418C67.1373 85.418 66.2852 84.5656 66.2852 83.5143V58.9422C66.2852 56.132 68.5632 53.8516 71.3755 53.8516C72.0483 53.8516 72.6909 53.9836 73.2792 54.2215C71.4101 54.9744 70.0926 56.8045 70.0926 58.9422V83.5143C70.0926 84.5656 69.2402 85.418 68.1889 85.418Z" fill="#DCC000"/><path d="M79.3646 117.231C77.104 117.231 75.5569 117.231 75.5569 117.231C63.1259 117.231 56.1035 104.508 56.1035 93.5612V69.2488C56.1035 66.4386 58.3816 64.1582 61.1939 64.1582C61.8667 64.1582 62.5093 64.2903 63.0976 64.5281C61.2285 65.281 59.911 67.1111 59.911 69.2488V93.5612C59.9112 104.508 66.9336 117.231 79.3646 117.231Z" fill="#DCC000"/><path d="M99.0046 79.4921C98.2668 80.8226 97.6567 82.1986 97.1765 83.6092C97.0619 84.0332 96.9452 84.4076 96.8261 84.7234C95.494 88.2815 95.8489 91.8995 95.8505 91.9138L95.8497 91.914C89.0539 91.914 83.439 96.9703 82.5621 103.526C82.4313 104.504 83.1582 105.39 84.1403 105.485C84.9369 105.563 85.6786 105.09 85.9619 104.342C90.1242 93.3438 100.608 95.0469 100.608 95.0469C97.9341 87.1655 104.117 75.9051 106.897 77.2247C104.093 75.6738 100.558 76.6863 99.0046 79.4921Z" fill="#DCC000"/></svg>
