<svg width="36" height="36" viewBox="0 0 36 36" fill="none" xmlns="http://www.w3.org/2000/svg"><path d="M33.9179 32.4011V16.1334C33.9179 15.2844 33.2298 14.5961 32.3807 14.5961H25.0807V10.1699C25.0807 9.75188 24.8541 9.36659 24.4893 9.16301L18.5619 5.85739C18.5292 5.83912 18.4954 5.8231 18.4615 5.80834V3.92194H21.6534C21.908 3.92194 22.1145 3.71539 22.1145 3.46069V1.13094C22.1145 0.876242 21.908 0.669692 21.6534 0.669692H18.4615V0.461251C18.4615 0.206551 18.2551 0 18.0004 0C17.7456 0 17.5392 0.206551 17.5392 0.461251V5.80834C17.5053 5.82319 17.4715 5.83921 17.4388 5.85739L11.5114 9.1631C11.1461 9.36659 10.9198 9.75198 10.9198 10.17V14.5961H3.61953C2.77047 14.5961 2.08233 15.2844 2.08233 16.1334V32.401C1.4292 32.6965 0.974609 33.3535 0.974609 34.1167C0.974609 35.157 1.81773 36 2.85777 36H33.1424C34.1824 36 35.0256 35.157 35.0256 34.1167C35.0255 33.3535 34.571 32.6965 33.9179 32.4011ZM27.9758 19.9545C27.9758 19.4599 28.3767 19.059 28.8716 19.059H30.5461C31.0406 19.059 31.4416 19.4599 31.4416 19.9545V21.6291C31.4416 22.1237 31.0406 22.5246 30.5461 22.5246H28.8717C28.3768 22.5246 27.9759 22.1237 27.9759 21.6291V19.9545H27.9758ZM27.9758 25.3351C27.9758 24.8405 28.3767 24.4396 28.8716 24.4396H30.5461C31.0406 24.4396 31.4416 24.8405 31.4416 25.3351V27.0095C31.4416 27.5041 31.0406 27.905 30.5461 27.905H28.8717C28.3768 27.905 27.9759 27.5041 27.9759 27.0095V25.3351H27.9758ZM22.5955 19.9545C22.5955 19.4599 22.9963 19.059 23.4908 19.059H25.1654C25.6597 19.059 26.0609 19.4599 26.0609 19.9545V21.6291C26.0609 22.1237 25.6597 22.5246 25.1654 22.5246H23.4908C22.9963 22.5246 22.5955 22.1237 22.5955 21.6291V19.9545ZM22.5955 25.3351C22.5955 24.8405 22.9963 24.4396 23.4908 24.4396H25.1654C25.6597 24.4396 26.0609 24.8405 26.0609 25.3351V27.0095C26.0609 27.5041 25.6597 27.905 25.1654 27.905H23.4908C22.9963 27.905 22.5955 27.5041 22.5955 27.0095V25.3351ZM18.0001 10.1735C19.401 10.1735 20.5367 11.3092 20.5367 12.7101C20.5367 14.111 19.4011 15.2466 18.0001 15.2466C16.5991 15.2466 15.4635 14.111 15.4635 12.71C15.4635 11.3091 16.5991 10.1735 18.0001 10.1735ZM15.46 24.7353C15.46 24.2408 15.8609 23.8398 16.3558 23.8398H19.6445C20.1391 23.8398 20.54 24.2408 20.54 24.7353V31.7904C20.54 31.9519 20.4969 32.1032 20.4219 32.234H15.5786C15.5037 32.1032 15.4603 31.9519 15.4603 31.7904L15.46 24.7353ZM9.93915 19.9545C9.93915 19.4599 10.34 19.059 10.8346 19.059H12.5091C13.0036 19.059 13.4045 19.4599 13.4045 19.9545V21.6291C13.4045 22.1237 13.0036 22.5246 12.5091 22.5246H10.8346C10.34 22.5246 9.93915 22.1237 9.93915 21.6291V19.9545ZM9.93915 25.3351C9.93915 24.8405 10.34 24.4396 10.8346 24.4396H12.5091C13.0036 24.4396 13.4045 24.8405 13.4045 25.3351V27.0095C13.4045 27.5041 13.0036 27.905 12.5091 27.905H10.8346C10.34 27.905 9.93915 27.5041 9.93915 27.0095V25.3351ZM4.55832 19.9545C4.55832 19.4599 4.95918 19.059 5.454 19.059H7.12836C7.62309 19.059 8.02404 19.4599 8.02404 19.9545V21.6291C8.02404 22.1237 7.62309 22.5246 7.12836 22.5246H5.45409C4.95927 22.5246 4.55841 22.1237 4.55841 21.6291V19.9545H4.55832ZM4.55832 25.3351C4.55832 24.8405 4.95918 24.4396 5.454 24.4396H7.12836C7.62309 24.4396 8.02404 24.8405 8.02404 25.3351V27.0095C8.02404 27.5041 7.62309 27.905 7.12836 27.905H5.45409C4.95927 27.905 4.55841 27.5041 4.55841 27.0095V25.3351H4.55832Z" fill="#0E0C0D"/></svg>