<svg width="209" height="209" viewBox="0 0 209 209" fill="none" xmlns="http://www.w3.org/2000/svg"><circle cx="104.5" cy="104.5" r="104.5" fill="#E9E9E9"/><path d="M171.846 53.2686H104.67C102.942 53.2686 101.385 52.3057 100.592 50.7764L96.9951 43.7812C96.2021 42.252 94.6445 41.2891 92.917 41.2891H37.126C34.6055 41.3174 32.5664 43.3564 32.5664 45.877V163.123C32.5664 165.644 34.6055 167.711 37.1543 167.711H171.874C174.395 167.711 176.462 165.672 176.462 163.123V57.8564C176.434 55.3076 174.395 53.2686 171.846 53.2686Z" fill="#0E0C0D"/><path d="M171.846 53.2686H104.67C102.942 53.2686 101.385 52.3057 100.592 50.7764L96.9951 43.7812C96.2021 42.252 94.6445 41.2891 92.917 41.2891H37.126C34.6055 41.3174 32.5664 43.3564 32.5664 45.877V48.2275C32.5664 45.707 34.6055 43.6396 37.1543 43.6396H92.9453C94.6729 43.6396 96.2305 44.6025 97.0234 46.1318L100.62 53.127C101.413 54.6562 102.971 55.6191 104.698 55.6191H171.874C174.395 55.6191 176.462 57.6582 176.462 60.207V57.8564C176.434 55.3076 174.395 53.2686 171.846 53.2686Z" fill="#494949"/><path d="M171.846 63.8604H115.8C114.214 63.8604 112.77 64.6816 111.92 66.0127L108.465 71.5352C107.615 72.8662 106.171 73.6875 104.585 73.6875H37.1543C34.6338 73.6875 32.5664 75.7266 32.5664 78.2754V163.123C32.5664 165.644 34.6055 167.711 37.1543 167.711H171.874C174.395 167.711 176.462 165.672 176.462 163.123V68.4199C176.434 65.8994 174.395 63.8604 171.846 63.8604Z" fill="#FAE23A"/><path d="M171.846 63.8604H115.8C114.214 63.8604 112.77 64.6816 111.92 66.0127L108.465 71.5352C107.615 72.8662 106.171 73.6875 104.585 73.6875H37.1543C34.6338 73.6875 32.5664 75.7266 32.5664 78.2754V81.1924C32.5664 78.6719 34.6055 76.6045 37.1543 76.6045H104.585C106.171 76.6045 107.615 75.7832 108.465 74.4521L111.948 68.9297C112.798 67.5986 114.242 66.7773 115.828 66.7773H171.874C174.395 66.7773 176.462 68.8164 176.462 71.3652V68.4482C176.434 65.8994 174.395 63.8604 171.846 63.8604Z" fill="#B5A222"/><path d="M111.042 111.443C108.495 109.434 105.201 108.71 101.977 109.481C98.2384 110.345 95.2245 113.312 94.3132 117.027C93.402 120.765 94.4534 124.55 97.1402 127.191C98.0982 128.149 98.659 129.652 98.659 131.194V131.451C98.659 132.105 99.1729 132.619 99.8272 132.619H109.173C109.827 132.619 110.341 132.105 110.341 131.451V131.194C110.341 129.675 110.925 128.125 111.953 127.121C113.916 125.135 115.014 122.494 115.014 119.691C115.014 116.467 113.565 113.452 111.042 111.443ZM104.5 116.186C102.738 116.186 101.455 117.355 101.119 118.709C100.966 119.324 100.346 119.717 99.7028 119.562C99.0777 119.407 98.6954 118.772 98.8506 118.147C99.4294 115.811 101.624 113.85 104.5 113.85C105.146 113.85 105.668 114.372 105.668 115.018C105.668 115.664 105.146 116.186 104.5 116.186Z" fill="#0E0C0D"/><path d="M99.8271 134.955V136.123C99.8271 138.056 101.399 139.628 103.332 139.628H105.668C107.601 139.628 109.173 138.056 109.173 136.123V134.955H99.8271Z" fill="#0E0C0D"/></svg>