<svg width="28" height="28" viewBox="0 0 28 28" fill="none" xmlns="http://www.w3.org/2000/svg"><path d="M24.1692 3.83136C23.9319 3.59397 23.5459 3.59397 23.3085 3.83136L14.7868 12.3531C14.5494 12.5905 14.5494 12.9764 14.7868 13.2138C14.9061 13.3319 15.0619 13.3916 15.2178 13.3916C15.3736 13.3916 15.5294 13.3319 15.6475 13.2138L24.1692 4.69208C24.4066 4.45469 24.4066 4.06875 24.1692 3.83136Z" fill="#9EA0A5"/><path d="M23.741 3.65234C23.405 3.65234 23.1323 3.92506 23.1323 4.26106V11.5654C23.1323 11.9014 23.405 12.1741 23.741 12.1741C24.077 12.1741 24.3498 11.9014 24.3498 11.5654V4.26106C24.3498 3.92506 24.077 3.65234 23.741 3.65234Z" fill="#9EA0A5"/><path d="M23.7409 3.65234H16.4366C16.1006 3.65234 15.8279 3.92506 15.8279 4.26106C15.8279 4.59706 16.1006 4.86971 16.4366 4.86971H23.7409C24.0769 4.86971 24.3497 4.597 24.3497 4.261C24.3497 3.925 24.0769 3.65234 23.7409 3.65234Z" fill="#9EA0A5"/><path d="M13.2135 14.7874C12.9762 14.55 12.5902 14.55 12.3528 14.7874L3.83112 23.3091C3.59373 23.5465 3.59373 23.9325 3.83112 24.1698C3.95044 24.2879 4.10623 24.3476 4.26208 24.3476C4.41792 24.3476 4.57371 24.288 4.69183 24.1698L13.2135 15.6481C13.4509 15.4107 13.4509 15.0248 13.2135 14.7874Z" fill="#9EA0A5"/><path d="M4.26179 15.8262C3.92579 15.8262 3.65308 16.0989 3.65308 16.4349V23.7392C3.65308 24.0752 3.92579 24.3479 4.26179 24.3479C4.59779 24.3479 4.87045 24.0752 4.87045 23.7392V16.4349C4.87045 16.0989 4.59779 15.8262 4.26179 15.8262Z" fill="#9EA0A5"/><path d="M11.5661 23.1299H4.26179C3.92579 23.1299 3.65308 23.4026 3.65308 23.7386C3.65308 24.0746 3.92579 24.3473 4.26179 24.3473H11.5661C11.9021 24.3473 12.1748 24.0746 12.1748 23.7386C12.1748 23.4026 11.9021 23.1299 11.5661 23.1299Z" fill="#9EA0A5"/><path d="M26.1739 0H1.82609C0.819285 0 0 0.819285 0 1.82609V26.1739C0 27.1807 0.819285 28 1.82609 28H26.1739C27.1807 28 28 27.1807 28 26.1739V1.82609C28 0.819285 27.1807 0 26.1739 0ZM26.7826 26.1739C26.7826 26.5087 26.5087 26.7826 26.1739 26.7826H1.82609C1.49128 26.7826 1.21737 26.5087 1.21737 26.1739V1.82609C1.21737 1.49128 1.49128 1.21737 1.82609 1.21737H26.1739C26.5087 1.21737 26.7826 1.49128 26.7826 1.82609V26.1739H26.7826Z" fill="#9EA0A5"/></svg>