<svg width="36" height="36" viewBox="0 0 36 36" fill="none" xmlns="http://www.w3.org/2000/svg"><path d="M18.2209 3.26467C17.6021 3.05813 16.9328 3.39211 16.726 4.01119L15.0118 9.14452L12.3655 12.0144L8.9084 12.0866C8.63484 12.0924 8.36321 12.1328 8.09954 12.2067L4.30598 13.2704L2.13976 10.4307C1.73794 9.90422 0.96588 9.78585 0.447053 10.1973C-0.0561177 10.5961 -0.148952 11.3267 0.242159 11.8395L2.91347 15.3413C3.20818 15.7275 3.70723 15.8926 4.17195 15.7621L7.57796 14.8071L7.65377 21.8617L6.20111 25.7055C6.16019 25.8137 6.13217 25.9263 6.11789 26.0411L5.35269 32.1794C5.24448 33.046 5.91876 33.8197 6.80261 33.8197C7.52825 33.8197 8.15694 33.2792 8.24922 32.5406L8.99299 26.5748L10.5959 22.3341L11.5945 22.3234L13.9363 26.6833L13.4534 32.2335C13.3795 33.0841 14.0489 33.8194 14.9091 33.8194C15.6581 33.8194 16.2956 33.2465 16.3615 32.4865L16.882 26.5026C16.9064 26.2197 16.8482 25.9357 16.7136 25.6857L14.0011 20.6353L13.9275 13.8057L16.9207 10.5601C17.0338 10.4373 17.1198 10.2918 17.1728 10.1333L18.9671 4.75936C19.1742 4.14055 18.84 3.47122 18.2209 3.26467Z" fill="#0E0C0D"/><path d="M13.5411 8.81521C13.5263 7.44082 12.4002 6.33889 11.0261 6.35372C9.6517 6.36856 8.54977 7.49466 8.5646 8.86905C8.57943 10.2432 9.70553 11.3454 11.0796 11.3305C12.454 11.3157 13.556 10.1896 13.5411 8.81521Z" fill="#0E0C0D"/><path d="M27.1844 5.96618C25.8419 5.76101 24.5873 6.68331 24.3821 8.02584C24.1769 9.36837 25.0989 10.623 26.4417 10.8282C27.7843 11.0331 29.0389 10.111 29.2441 8.76852C29.449 7.42599 28.5269 6.17135 27.1844 5.96618Z" fill="#0E0C0D"/><path d="M35.2195 4.53109C34.6059 4.30945 33.9286 4.62695 33.7067 5.24053L32.2829 9.17911L28.0348 11.9386L25.5044 11.5521L22.9135 7.91212L23.3283 3.47119C23.389 2.82163 22.9113 2.24568 22.2618 2.18498C21.6119 2.124 21.0363 2.6019 20.9756 3.25174L20.5202 8.12965C20.4938 8.41172 20.5696 8.69379 20.7339 8.92478L23.4793 12.7821L22.4477 19.5356C22.443 19.5474 22.4373 19.5584 22.4332 19.5702L20.4021 25.1633C20.3441 25.3232 20.3145 25.4915 20.3145 25.6615V32.3601C20.3145 33.166 20.9679 33.8194 21.774 33.8194C22.5798 33.8194 23.2332 33.166 23.2332 32.3601V25.9183L24.8705 21.4098L25.3879 21.5392L25.9512 26.4265C25.9677 26.5682 26.0045 26.7069 26.0611 26.8379L28.6948 32.9386C29.015 33.6799 29.8744 34.0188 30.6133 33.6999C31.3535 33.3805 31.6943 32.5216 31.3749 31.7814L28.8266 25.8785L28.4009 22.1858L29.7 13.6816C29.7006 13.6791 29.7006 13.6766 29.7011 13.6741L33.9028 10.9446C34.1187 10.8045 34.2827 10.5974 34.3703 10.3555L35.929 6.0439C36.1509 5.43032 35.8331 4.75302 35.2195 4.53109Z" fill="#0E0C0D"/></svg>