<svg width="36" height="36" viewBox="0 0 36 36" fill="none" xmlns="http://www.w3.org/2000/svg"><g clip-path="url(#clip0)" fill="#0E0C0D"><path d="M14.4673 6.48438L14.4629 7.84861L15.1122 5.45716C14.7318 5.64338 14.4687 6.0323 14.4673 6.48438Z"/><path d="M15.1329 9.24938C14.8159 9.16341 14.5762 8.93572 14.4611 8.65337L14.4515 11.718L12.0158 14.3591L8.72347 14.4283C8.41311 14.4349 8.10467 14.4805 7.80584 14.5643L4.18419 15.58L2.08058 12.8224C1.70567 12.3308 1.00529 12.1962 0.496621 12.5475C-0.0463787 12.9227 -0.160362 13.6706 0.235421 14.1894L2.83122 17.5921C3.11796 17.9679 3.60329 18.1274 4.054 18.0011L7.36364 17.073L7.44109 24.2556L5.22789 33.711C5.04936 34.4737 5.52287 35.2368 6.28533 35.4153C7.053 35.5946 7.81215 35.1154 7.98958 34.3576L10.3234 24.3872L11.2668 24.377L13.5418 28.6125L13.0732 33.9093C12.9999 34.7382 13.6528 35.4526 14.4877 35.4526C15.2145 35.4526 15.8336 34.897 15.8987 34.1593L16.4046 28.4401C16.4287 28.1646 16.3722 27.8877 16.2412 27.6441L13.6053 22.7365L13.5338 16.1002L16.4422 12.9463C16.6369 12.7353 16.7454 12.4588 16.7463 12.1717L16.7622 7.11528L16.376 8.53719C16.2296 9.07689 15.6734 9.39632 15.1329 9.24938Z"/><path d="M13.1583 11.2505C13.1438 9.91515 12.0495 8.84426 10.7141 8.85881C9.37875 8.87337 8.30786 9.96761 8.32241 11.303C8.33669 12.6384 9.43094 13.709 10.7663 13.6947C12.1017 13.6802 13.1726 12.5859 13.1583 11.2505Z"/><path d="M27.5109 8.65748C26.1925 8.59816 25.0755 9.61879 25.0161 10.9371C24.9568 12.2555 25.9774 13.3725 27.2958 13.4319C28.6142 13.4915 29.7312 12.4706 29.7905 11.1522C29.8499 9.83385 28.8292 8.71681 27.5109 8.65748Z"/><path d="M35.1243 6.44209C34.9812 6.40693 34.8379 6.40144 34.7 6.41984L35.1933 8.23643C35.3397 8.77641 35.0211 9.33287 34.4811 9.47954C34.0191 9.60478 33.5401 9.38945 33.3212 8.97609L32.7672 11.2363L28.9481 14.3415L26.3256 14.2234L22.6252 11.9756L22.1275 7.43196C22.0583 6.80162 21.4919 6.34678 20.861 6.41572C20.2307 6.48494 19.7759 7.05183 19.8448 7.68217L20.4043 12.7884C20.4433 13.1427 20.6446 13.4593 20.9495 13.6445L24.6225 15.8755C24.5288 17.9063 24.3412 22.2253 24.3242 22.2943L22.9399 27.9083C22.9001 28.069 22.8891 28.2357 22.9067 28.4002L23.5329 34.1867C23.6172 34.9662 24.3176 35.5287 25.0955 35.4444C25.8741 35.3601 26.4372 34.6605 26.3528 33.8819L25.7538 28.3442L26.8695 23.8197L27.3828 23.8914L28.4323 28.5554C28.4614 28.6845 28.5084 28.8092 28.5721 28.9254L31.7441 34.7157C32.1193 35.401 32.9806 35.6553 33.6692 35.2782C34.3561 34.9019 34.608 34.0398 34.2317 33.3529L31.1555 27.7377L30.3607 24.2045L30.7369 15.8535C30.7372 15.8513 30.7369 15.8489 30.7369 15.8464L34.5149 12.7749C34.7088 12.617 34.8461 12.4003 34.9057 12.1575L35.9659 7.83049C36.117 7.21443 35.7401 6.59288 35.1243 6.44209Z"/><path d="M21.5784 4.85868L22.3433 2.04068C22.3716 1.93658 22.3392 1.82425 22.2576 1.75394C20.8486 0.54324 18.7978 1.69736 17.3357 0.682767C17.1756 0.571804 16.954 0.654202 16.9029 0.842069C16.6996 1.59051 15.2884 6.75547 14.9105 8.1392C14.8232 8.46137 15.066 8.7786 15.3997 8.7786C15.6227 8.7786 15.827 8.63029 15.888 8.40452L16.9817 4.37665C17.1416 4.43158 17.3061 4.47031 17.4736 4.4975C18.6915 4.69333 20.076 4.27558 21.1455 5.0177C21.3057 5.12866 21.5273 5.04654 21.5784 4.85868Z"/><path d="M28.037 5.08858C28.088 5.27644 28.3097 5.35857 28.4698 5.2476C29.5393 4.50575 30.9239 4.92323 32.1417 4.7274C32.3093 4.70048 32.4738 4.66148 32.6336 4.60655L33.7271 8.63442C33.8007 8.90469 34.0789 9.06371 34.3486 8.99065C34.6186 8.91732 34.7782 8.63909 34.7048 8.3691C34.5269 7.71788 33.1467 2.6713 32.7122 1.07169C32.6614 0.883825 32.4395 0.801702 32.2796 0.912664C30.8173 1.92698 28.7664 0.772863 27.3577 1.98383C27.2759 2.05415 27.2435 2.16648 27.2718 2.27058L28.037 5.08858Z"/></g><defs><clipPath id="clip0"><rect width="36" height="36" fill="white"/></clipPath></defs></svg>