<svg width="84" height="48" viewBox="0 0 84 48" fill="none" xmlns="http://www.w3.org/2000/svg"><path d="M66.4032 12.0676C64.9748 12.0676 63.5878 12.242 62.2581 12.5632C58.2643 5.50429 50.6891 0.739258 42 0.739258C33.3109 0.739258 25.7357 5.50445 21.7419 12.5632C20.4122 12.242 19.0252 12.0676 17.5969 12.0676C7.87828 12.0676 0 19.9459 0 29.6645C0 39.383 7.87828 47.2613 17.5969 47.2613H36.7718V36.8049H28.0352V36.6929L41.8343 22.2821H42.1659L55.965 36.6929V36.8049H47.2283V47.2613H66.4033C76.1217 47.2613 84.0002 39.383 84.0002 29.6645C84.0002 19.9459 76.1217 12.0676 66.4032 12.0676Z" fill="#9EA0A5"/></svg>