<svg width="16" height="16" viewBox="0 0 16 16" fill="none" xmlns="http://www.w3.org/2000/svg"><path d="M13.8366 0H2.15491C0.964812 0 0 0.964773 0 2.15491V13.8367C0 15.0269 0.964773 15.9916 2.15491 15.9916H7.91628L7.9261 10.2771H6.44147C6.24853 10.2771 6.09193 10.1211 6.09119 9.92814L6.08407 8.0861C6.08332 7.89211 6.24039 7.73445 6.43439 7.73445H7.91632V5.95458C7.91632 3.88906 9.17782 2.76436 11.0204 2.76436H12.5324C12.7258 2.76436 12.8827 2.92119 12.8827 3.11468V4.66789C12.8827 4.8613 12.7259 5.01809 12.5326 5.01821L11.6047 5.01864C10.6026 5.01864 10.4086 5.49481 10.4086 6.1936V7.73449H12.6105C12.8203 7.73449 12.983 7.91769 12.9583 8.12604L12.74 9.96808C12.7191 10.1444 12.5696 10.2772 12.3921 10.2772H10.4184L10.4086 15.9917H13.8367C15.0268 15.9917 15.9916 15.0269 15.9916 13.8368V2.15491C15.9916 0.964773 15.0268 0 13.8366 0Z" fill="#475993"/></svg>