<svg width="16" height="16" viewBox="0 0 16 16" fill="none" xmlns="http://www.w3.org/2000/svg"><path fill-rule="evenodd" clip-rule="evenodd" d="M4.75814 0H11.2139C13.8375 0 15.972 2.13449 15.972 4.75814V11.2139C15.972 13.8375 13.8375 15.972 11.2139 15.972H4.75814C2.13449 15.972 0 13.8375 0 11.2139V4.75814C0 2.13449 2.13449 0 4.75814 0ZM11.2139 14.3652C12.9543 14.3652 14.3652 12.9543 14.3652 11.2139V4.75814C14.3652 3.01768 12.9543 1.60678 11.2139 1.60678H4.75814C3.01771 1.60678 1.60678 3.01768 1.60678 4.75814V11.2139C1.60678 12.9543 3.01771 14.3652 4.75814 14.3652H11.2139Z" fill="url(#paint0_linear)"/><path fill-rule="evenodd" clip-rule="evenodd" d="M3.85498 7.98588C3.85498 5.70811 5.70811 3.85498 7.98591 3.85498C10.2637 3.85498 12.1168 5.70808 12.1168 7.98588C12.1168 10.2637 10.2637 12.1168 7.98591 12.1168C5.70811 12.1168 3.85498 10.2636 3.85498 7.98588ZM5.46176 7.98591C5.46176 9.37997 6.59185 10.5101 7.98591 10.5101C9.37994 10.5101 10.5101 9.37994 10.5101 7.98591C10.5101 6.59185 9.37997 5.46176 7.98591 5.46176C6.59188 5.46176 5.46176 6.59185 5.46176 7.98591Z" fill="url(#paint1_linear)"/><path d="M12.1249 4.87595C12.6715 4.87595 13.1147 4.43278 13.1147 3.8861C13.1147 3.33941 12.6715 2.89624 12.1249 2.89624C11.5782 2.89624 11.135 3.33941 11.135 3.8861C11.135 4.43278 11.5782 4.87595 12.1249 4.87595Z" fill="url(#paint2_linear)"/><defs><linearGradient id="paint0_linear" x1="15.8867" y1="15.9255" x2="15.8867" y2="0.124057" gradientUnits="userSpaceOnUse"><stop stop-color="#E09B3D"/><stop offset="0.3" stop-color="#C74C4D"/><stop offset="0.6" stop-color="#C21975"/><stop offset="1" stop-color="#7024C4"/></linearGradient><linearGradient id="paint1_linear" x1="15.8867" y1="15.9254" x2="15.8867" y2="0.123966" gradientUnits="userSpaceOnUse"><stop stop-color="#E09B3D"/><stop offset="0.3" stop-color="#C74C4D"/><stop offset="0.6" stop-color="#C21975"/><stop offset="1" stop-color="#7024C4"/></linearGradient><linearGradient id="paint2_linear" x1="20.0256" y1="15.9255" x2="20.0256" y2="0.124067" gradientUnits="userSpaceOnUse"><stop stop-color="#E09B3D"/><stop offset="0.3" stop-color="#C74C4D"/><stop offset="0.6" stop-color="#C21975"/><stop offset="1" stop-color="#7024C4"/></linearGradient></defs></svg>