<svg xmlns="http://www.w3.org/2000/svg" width="16" height="16" fill="none"  xmlns:v="https://vecta.io/nano"><path d="M14.522 3.382c-.022-.044-.046-.069-.067-.097l-.474-.588-.138-.153-.541-.526-.102-.093c-.465-.398-.974-.742-1.517-1.024l-.067-.033a7.95 7.95 0 0 0-.743-.331l-.164-.057-.686-.213-.207-.053-.691-.127-.212-.033c-.602-.073-1.211-.073-1.813 0l-.212.033-.691.127-.207.053-.686.213-.163.057c-.253.098-.501.208-.743.331l-.067.033c-.545.282-1.056.626-1.522 1.024l-.102.093-.541.526-.138.153-.54.669c-1.978 2.778-1.978 6.488-.007 9.251.027.044.051.069.072.097l.474.588.138.153.541.526.102.093c.465.398.974.742 1.517 1.024l.067.033c.242.123.49.233.743.331l.163.057.686.213.207.053.691.127.212.033c.602.073 1.211.073 1.813 0l.212-.033.691-.127.207-.053.686-.213.163-.057c.253-.098.501-.208.743-.331l.067-.033a8.01 8.01 0 0 0 1.517-1.024l.102-.093c.191-.167.371-.343.541-.526l.138-.153.54-.669c1.978-2.778 1.978-6.488.007-9.251zm-.652 1.081a6.8 6.8 0 0 1 .964 2.965H11.41a10.66 10.66 0 0 0-.32-2.017 10.27 10.27 0 0 0 2.78-.948zM9.458 1.299l.095.025.606.171.09.033.58.229.099.048.533.281.114.069.48.323.119.089a5.21 5.21 0 0 1 .438.368l.11.1.421.438.053.057a9.59 9.59 0 0 1-2.438.783A14.53 14.53 0 0 0 9.22 1.259l.239.039zm-3.72 6.13c.045-.618.15-1.231.314-1.829a16.38 16.38 0 0 0 1.951.114c.653 0 1.305-.039 1.953-.117a9.52 9.52 0 0 1 .313 1.832H5.738zm4.532 1.143c-.045.618-.15 1.231-.314 1.829a16.4 16.4 0 0 0-1.951-.114 16.43 16.43 0 0 0-1.953.114 9.52 9.52 0 0 1-.313-1.829h4.532zM8.004 1.514c.65.922 1.185 1.92 1.593 2.972a15.13 15.13 0 0 1-1.593.085c-.532-.001-1.063-.029-1.591-.085.408-1.051.942-2.049 1.591-2.972zM2.866 3.472l.421-.438.11-.1.438-.368.119-.089.48-.323.114-.069.533-.281.099-.048.58-.229.09-.033.606-.171.095-.025c.078-.017.159-.025.239-.039-.632.954-1.148 1.979-1.539 3.054-.844-.151-1.664-.414-2.438-.783l.053-.058zm-.727.992a10.27 10.27 0 0 0 2.779.948c-.171.661-.278 1.336-.32 2.017H1.174a6.8 6.8 0 0 1 .964-2.965zm0 7.073a6.8 6.8 0 0 1-.964-2.965h3.424c.042.681.149 1.357.32 2.017a10.27 10.27 0 0 0-2.78.948zm4.412 3.165l-.095-.025-.606-.171-.09-.033-.58-.229-.099-.048-.533-.281-.114-.069-.48-.323-.119-.089c-.152-.114-.298-.237-.438-.367l-.11-.1-.421-.438-.053-.057a9.59 9.59 0 0 1 2.438-.783c.391 1.075.907 2.1 1.539 3.053l-.239-.039zm1.454-.215c-.65-.922-1.185-1.92-1.593-2.972 1.059-.114 2.126-.114 3.185 0v.001a13.91 13.91 0 0 1-1.591 2.972zm5.139-1.958l-.421.438-.11.1-.438.367-.119.089-.48.323-.114.069-.533.281-.099.048-.58.229-.09.033-.606.172-.095.024c-.078.017-.159.025-.239.04a14.53 14.53 0 0 0 1.539-3.053 9.59 9.59 0 0 1 2.438.783l-.052.058zm.727-.992a10.27 10.27 0 0 0-2.779-.948 10.66 10.66 0 0 0 .319-2.017h3.424a6.8 6.8 0 0 1-.964 2.965z" fill="#000"/></svg>