<svg width="18" height="14" viewBox="0 0 18 14" fill="none" xmlns="http://www.w3.org/2000/svg"><path d="M17.8138 3.03973C17.8138 3.03973 17.6276 1.6771 17.1 1.07503C16.4172 0.282805 15.6414 0.282805 15.3 0.251107C12.7862 0.0609943 9 0.0292969 9 0.0292969C9 0.0292969 5.21378 0.0609943 2.7 0.251107C2.35863 0.282805 1.58277 0.314502 0.9 1.07503C0.341367 1.67713 0.186223 3.03973 0.186223 3.03973C0.186223 3.03973 0 4.65587 0 6.272V7.76139C0 9.37753 0.186223 10.962 0.186223 10.962C0.186223 10.962 0.372445 12.3246 0.9 12.9267C1.58277 13.7189 2.48277 13.6872 2.88622 13.7823C4.31378 13.9407 9 13.9724 9 13.9724C9 13.9724 12.7862 13.9724 15.3 13.7506C15.6414 13.7189 16.4172 13.6872 17.1 12.9266C17.6276 12.3246 17.8138 10.9619 17.8138 10.9619C17.8138 10.9619 18 9.34579 18 7.76135V6.27197C18 4.65587 17.8138 3.03973 17.8138 3.03973Z" fill="#D8362A"/><path d="M6.82764 3.80029V10.6768L12.7242 7.31778L6.82764 3.80029Z" fill="white"/></svg>