<svg width="86" height="86" viewBox="0 0 86 86" fill="none" xmlns="http://www.w3.org/2000/svg"><circle cx="43" cy="43" r="43" fill="white"/><g clip-path="url(#clip0)" fill="#FFB92B"><path d="M21.216 46.1554L21.8116 43.0755C21.9023 42.6032 21.8378 42.1142 21.6278 41.6815L20.5833 39.4504L7.64193 43.1593C7.50647 43.1993 7.38586 43.2785 7.29524 43.3868C7.20461 43.4952 7.14801 43.6279 7.13254 43.7683C7.11489 43.9086 7.13981 44.0511 7.20407 44.1771C7.26833 44.3031 7.36898 44.407 7.49295 44.4751L14.3732 48.2902L10.5582 55.1704C10.4891 55.2939 10.4588 55.4353 10.471 55.5762C10.4833 55.7172 10.5376 55.8512 10.6269 55.9609C10.6817 56.0371 10.7536 56.0994 10.8369 56.1427C11.0027 56.2354 11.1985 56.2587 11.3815 56.2076L23.7395 52.6658C22.7515 51.9258 21.9912 50.9232 21.545 49.7722C21.0989 48.6212 20.9849 47.368 21.216 46.1554Z"/><path d="M61.0694 72.786L57.3604 59.8447L54.9245 60.1377C54.442 60.194 53.9896 60.401 53.6315 60.7293L51.3381 62.8596C50.432 63.6979 49.3087 64.265 48.0961 64.4962C46.8836 64.7275 45.6304 64.6136 44.4794 64.1677L48.0211 76.5256C48.0747 76.7079 48.1982 76.8616 48.3646 76.9532C48.4455 77.0009 48.5364 77.0289 48.63 77.035C48.7704 77.0526 48.9129 77.0277 49.0389 76.9634C49.1649 76.8992 49.2688 76.7985 49.3369 76.6746L53.1519 69.7943L60.0322 73.6093C60.1557 73.6784 60.2971 73.7087 60.438 73.6965C60.579 73.6842 60.713 73.6299 60.8227 73.5406C60.9336 73.4531 61.0161 73.3348 61.06 73.2006C61.1039 73.0663 61.1072 72.9221 61.0694 72.786Z"/><path d="M50.3651 61.8137L52.6611 59.6822C53.2405 59.146 53.976 58.8086 54.7604 58.7191L57.8861 58.3463C58.9585 58.2251 59.9643 57.7646 60.7569 57.032C61.5494 56.2993 62.0873 55.3327 62.2921 54.273L62.8954 51.1371C63.0394 50.379 63.423 49.6873 63.9896 49.1636L66.3301 46.9908C67.1203 46.2557 67.6553 45.2874 67.8569 44.2271C68.0586 43.1668 67.9165 42.0698 67.4513 41.0958L66.1074 38.2379C65.7704 37.531 65.6678 36.735 65.8148 35.9658L66.4089 32.8794C66.6117 31.8013 66.4677 30.6868 65.9975 29.6957C65.5274 28.7046 64.7553 27.888 63.7922 27.363L61.104 25.8725C60.3976 25.4804 59.8313 24.8775 59.4843 24.1478L58.1857 21.3853C57.7137 20.379 56.9363 19.5473 55.9643 19.0083C54.9922 18.4693 53.875 18.2505 52.7715 18.3831L49.7459 18.7441C48.9389 18.8363 48.1233 18.6744 47.4127 18.2809L44.7306 16.7937C43.7752 16.2548 42.6736 16.0325 41.5839 16.1587C40.4943 16.2849 39.4726 16.7531 38.6657 17.4962L36.3625 19.6348C35.7879 20.1669 35.0584 20.5015 34.2803 20.5901L31.1443 20.9637C30.0718 21.085 29.066 21.5455 28.2735 22.2782C27.4809 23.0109 26.943 23.9775 26.7381 25.0372L26.1349 28.1732C25.9908 28.9312 25.6072 29.623 25.0406 30.1467L22.7002 32.3194C21.9099 33.0545 21.3749 34.0227 21.1733 35.083C20.9716 36.1433 21.1138 37.2403 21.5791 38.2142L22.9228 41.0723C23.2601 41.7792 23.3626 42.5753 23.2155 43.3445L22.6215 46.4306C22.4187 47.5087 22.5627 48.6232 23.0328 49.6143C23.503 50.6054 24.275 51.422 25.2382 51.947L27.9264 53.4375C28.6328 53.8296 29.1991 54.4326 29.5461 55.1622L30.8447 57.9247C31.3166 58.9311 32.0939 59.763 33.066 60.3021C34.0381 60.8411 35.1554 61.0597 36.259 60.9269L39.29 60.5651C40.0926 60.4729 40.904 60.6338 41.6108 61.0254L44.299 62.5159C45.2545 63.0551 46.3564 63.2776 47.4463 63.1514C48.5361 63.0252 49.558 62.5569 50.3651 61.8137ZM36.5383 54.041C33.693 52.4634 31.3794 50.0774 29.8902 47.1848C28.4009 44.2923 27.8029 41.0231 28.1716 37.7906C28.5403 34.5582 29.8593 31.5076 31.9618 29.0248C34.0642 26.542 36.8557 24.7384 39.9832 23.842C43.1108 22.9457 46.4338 22.9969 49.5322 23.9892C52.6306 24.9815 55.3652 26.8702 57.3902 29.4167C59.4151 31.9631 60.6395 35.0528 60.9085 38.2951C61.1774 41.5374 60.4789 44.7866 58.9012 47.6319C56.7821 51.4436 53.2374 54.2591 49.045 55.4606C44.8526 56.6622 40.3548 56.1516 36.5383 54.041Z"/><path d="M51.7972 26.5176C49.1993 25.0771 46.2326 24.4394 43.2723 24.6849C40.3119 24.9305 37.4909 26.0484 35.1659 27.8973C32.8409 29.7462 31.1164 32.2429 30.2104 35.0719C29.3044 37.9009 29.2576 40.935 30.076 43.7906C30.8944 46.6461 32.5412 49.1949 34.8081 51.1145C37.075 53.0341 39.8603 54.2384 42.8117 54.5751C45.763 54.9118 48.748 54.3657 51.389 53.006C54.03 51.6462 56.2085 49.5338 57.649 46.9359C59.576 43.4513 60.0421 39.3446 58.9451 35.5168C57.848 31.6889 55.2774 28.4525 51.7972 26.5176ZM48.7423 44.6324L46.4571 51.2212C46.4135 51.3472 46.3356 51.4585 46.2321 51.5425C46.1286 51.6265 46.0037 51.68 45.8715 51.6968C45.7393 51.7136 45.605 51.6931 45.4837 51.6377C45.3625 51.5823 45.2592 51.494 45.1855 51.383L41.2737 45.4964L34.209 45.2963C34.0758 45.2926 33.9462 45.2517 33.835 45.1783C33.7237 45.1048 33.6352 45.0017 33.5795 44.8807C33.5237 44.7596 33.5029 44.6254 33.5193 44.4931C33.5358 44.3608 33.5889 44.2358 33.6726 44.1321L38.0506 38.7036L35.9777 31.9885C35.938 31.8604 35.9352 31.7238 35.9695 31.5942C36.0038 31.4646 36.0739 31.3473 36.1717 31.2556C36.2695 31.1639 36.3911 31.1016 36.5226 31.0757C36.6542 31.0499 36.7904 31.0615 36.9156 31.1094L43.5363 33.6325L49.3121 29.6802C49.4236 29.6155 49.55 29.5808 49.6789 29.5795C49.8078 29.5782 49.9348 29.6104 50.0476 29.673C50.1603 29.7355 50.2549 29.8262 50.3222 29.9362C50.3894 30.0462 50.4269 30.1718 50.4311 30.3006L50.138 37.2931L55.785 41.5723C55.892 41.6532 55.974 41.7625 56.0217 41.8878C56.0695 42.013 56.081 42.1492 56.0551 42.2807C56.0291 42.4122 55.9667 42.5338 55.875 42.6316C55.7832 42.7293 55.6658 42.7993 55.5362 42.8335L48.7423 44.6324Z"/><path d="M48.6935 37.6067L48.9425 31.6672L44.0365 35.0245C43.9411 35.0896 43.8313 35.1306 43.7166 35.1442C43.6019 35.1577 43.4856 35.1434 43.3776 35.1023L37.7778 32.9684L39.5301 38.6458C39.5647 38.7578 39.5712 38.8765 39.5492 38.9915C39.5272 39.1066 39.4772 39.2145 39.4037 39.3057L35.6926 43.9073L41.6851 44.0771C41.7995 44.0805 41.9115 44.1112 42.0116 44.1667C42.1117 44.2222 42.1971 44.3009 42.2606 44.3962L45.579 49.3892L47.5164 43.8041C47.5548 43.6934 47.6198 43.5939 47.7058 43.5143C47.7917 43.4346 47.8959 43.3773 48.0091 43.3474L53.7529 41.8264L48.9764 38.2067C48.8844 38.1369 48.8106 38.0459 48.7613 37.9414C48.7121 37.8369 48.6888 37.7221 48.6935 37.6067Z"/></g><defs><clipPath id="clip0"><rect width="62.9375" height="62.9375" fill="white" transform="translate(30.5195) rotate(29.0079)"/></clipPath></defs></svg>