<svg id="Layer_1" xmlns="http://www.w3.org/2000/svg" xmlns:xlink="http://www.w3.org/1999/xlink" width="621.127" height="621.127" viewBox="89.437 -10.563 621.127 621.127" enable-background="new 89.437 -10.563 621.127 621.127"><path fill="#dadbdc" d="M109.437 10h581.127v580.562H109.437z"/><g transform="translate(-5.000000, -5.000000)"><path fill="#f3f4f4" d="M94.437-5.563h621.127v621.127H94.437V-5.563v0zm380.909 259.62-8.185-47.831L299.63 235.641l24.553 139.908 16.627-2.813v12.021h170.087V254.057H475.346v0zM340.811 358.666l-5.371 1.021-19.95-112.794 140.419-24.812 5.628 31.974H340.811V358.666v0 0zM497.087 370.943H354.621V267.868h142.466V370.943v0zM363.828 277.075v76.474l28.903-19.181 17.903 11.252 43.48-47.829 5.629 2.301 28.134 32.485v-55.502H363.828v0 0zM391.451 310.068c-6.648.0-12.276-5.626-12.276-12.277.0-6.65 5.628-12.279 12.276-12.279 6.651.0 12.276 5.626 12.276 12.279C403.729 304.442 398.102 310.068 391.451 310.068v0 0z"/></g></svg>
