<svg width="22" height="22" viewBox="0 0 22 22" fill="none" xmlns="http://www.w3.org/2000/svg"><path d="M11.0007 0.9151C9.17738 0.9151 7.42869 1.63943 6.13938 2.92874C4.85007 4.21805 4.12574 5.96674 4.12574 7.7901V13.1526L2.60407 15.4443C2.42168 15.7255 2.31823 16.0505 2.30454 16.3854C2.29085 16.7203 2.36742 17.0528 2.52625 17.3479C2.68507 17.6431 2.92031 17.8901 3.20734 18.0632C3.49438 18.2363 3.82265 18.3291 4.15782 18.3318H17.8437C18.181 18.3307 18.5117 18.2383 18.8009 18.0645C19.09 17.8907 19.3267 17.642 19.486 17.3446C19.6452 17.0472 19.7211 16.7123 19.7055 16.3754C19.6899 16.0384 19.5834 15.7119 19.3974 15.4305L17.8757 13.1526V7.7901C17.8757 5.96674 17.1514 4.21805 15.8621 2.92874C14.5728 1.63943 12.8241 0.9151 11.0007 0.9151Z" fill="#0E0C0D"/><path d="M11.001 21.1651C11.5691 21.1645 12.1231 20.9879 12.5868 20.6596C13.0505 20.3313 13.4012 19.8674 13.5905 19.3318H8.41138C8.60076 19.8674 8.9514 20.3313 9.41511 20.6596C9.87881 20.9879 10.4328 21.1645 11.001 21.1651Z" fill="#0E0C0D"/></svg>
