<svg width="28" height="28" viewBox="0 0 28 28" fill="none" xmlns="http://www.w3.org/2000/svg"><path d="M25.375 0H2.625C1.17523 0 0 1.17523 0 2.625V25.375C0 26.8248 1.17523 28 2.625 28H25.375C26.8248 28 28 26.8248 28 25.375V2.625C28 1.17523 26.8248 0 25.375 0ZM26.25 25.375C26.25 25.8583 25.8583 26.25 25.375 26.25H2.625C2.14173 26.25 1.75 25.8583 1.75 25.375V2.625C1.75 2.14173 2.14173 1.75 2.625 1.75H25.375C25.8583 1.75 26.25 2.14173 26.25 2.625V25.375Z" fill="#9EA0A5"/><path d="M18.9965 15.1285C18.6552 14.7892 18.1041 14.7892 17.7628 15.1285L15.7503 17.141L11.9965 13.3873C11.6552 13.048 11.1041 13.048 10.7628 13.3873L4.63778 19.5123C4.29949 19.8573 4.3049 20.4113 4.64998 20.7496C4.81049 20.907 5.02546 20.9966 5.25028 20.9998H22.7503C23.2335 21.0026 23.6275 20.6131 23.6304 20.1299C23.6317 19.8948 23.5384 19.6691 23.3715 19.5035L18.9965 15.1285Z" fill="#9EA0A5"/><path d="M16.625 12.25C18.0747 12.25 19.25 11.0747 19.25 9.625C19.25 8.17525 18.0747 7 16.625 7C15.1753 7 14 8.17525 14 9.625C14 11.0747 15.1753 12.25 16.625 12.25Z" fill="#9EA0A5"/></svg>