<svg width="36" height="36" viewBox="0 0 36 36" fill="none" xmlns="http://www.w3.org/2000/svg"><path d="M9 27.5625H5.625C4.87908 27.5625 4.16371 27.8588 3.63626 28.3863C3.10882 28.9137 2.8125 29.6291 2.8125 30.375V33.75C2.8125 33.8992 2.87176 34.0423 2.97725 34.1477C3.08274 34.2532 3.22582 34.3125 3.375 34.3125H11.25C11.3992 34.3125 11.5423 34.2532 11.6477 34.1477C11.7532 34.0423 11.8125 33.8992 11.8125 33.75V30.375C11.8125 29.6291 11.5162 28.9137 10.9887 28.3863C10.4613 27.8588 9.74592 27.5625 9 27.5625Z" fill="#0E0C0D"/><path d="M7.3125 26.4375C8.8658 26.4375 10.125 25.1783 10.125 23.625C10.125 22.0717 8.8658 20.8125 7.3125 20.8125C5.7592 20.8125 4.5 22.0717 4.5 23.625C4.5 25.1783 5.7592 26.4375 7.3125 26.4375Z" fill="#0E0C0D"/><path d="M30.375 27.5625H27C26.2541 27.5625 25.5387 27.8588 25.0113 28.3863C24.4838 28.9137 24.1875 29.6291 24.1875 30.375V33.75C24.1875 33.8992 24.2468 34.0423 24.3523 34.1477C24.4577 34.2532 24.6008 34.3125 24.75 34.3125H32.625C32.7742 34.3125 32.9173 34.2532 33.0227 34.1477C33.1282 34.0423 33.1875 33.8992 33.1875 33.75V30.375C33.1875 29.6291 32.8912 28.9137 32.3637 28.3863C31.8363 27.8588 31.1209 27.5625 30.375 27.5625Z" fill="#0E0C0D"/><path d="M28.6875 26.4375C30.2408 26.4375 31.5 25.1783 31.5 23.625C31.5 22.0717 30.2408 20.8125 28.6875 20.8125C27.1342 20.8125 25.875 22.0717 25.875 23.625C25.875 25.1783 27.1342 26.4375 28.6875 26.4375Z" fill="#0E0C0D"/><path d="M19.6875 27.5625H16.3125C15.5666 27.5625 14.8512 27.8588 14.3238 28.3863C13.7963 28.9137 13.5 29.6291 13.5 30.375V33.75C13.5 33.8992 13.5593 34.0423 13.6648 34.1477C13.7702 34.2532 13.9133 34.3125 14.0625 34.3125H21.9375C22.0867 34.3125 22.2298 34.2532 22.3352 34.1477C22.4407 34.0423 22.5 33.8992 22.5 33.75V30.375C22.5 29.6291 22.2037 28.9137 21.6762 28.3863C21.1488 27.8588 20.4334 27.5625 19.6875 27.5625Z" fill="#0E0C0D"/><path d="M18 26.4375C19.5533 26.4375 20.8125 25.1783 20.8125 23.625C20.8125 22.0717 19.5533 20.8125 18 20.8125C16.4467 20.8125 15.1875 22.0717 15.1875 23.625C15.1875 25.1783 16.4467 26.4375 18 26.4375Z" fill="#0E0C0D"/><path d="M27 1.6875H9C8.25408 1.6875 7.53871 1.98382 7.01126 2.51126C6.48382 3.03871 6.1875 3.75408 6.1875 4.5V14.0625C6.1875 14.8084 6.48382 15.5238 7.01126 16.0512C7.53871 16.5787 8.25408 16.875 9 16.875H27C27.7459 16.875 28.4613 16.5787 28.9887 16.0512C29.5162 15.5238 29.8125 14.8084 29.8125 14.0625V4.5C29.8125 3.75408 29.5162 3.03871 28.9887 2.51126C28.4613 1.98382 27.7459 1.6875 27 1.6875ZM19.6875 8.4375H24.1875V9.5625H19.6875V8.4375ZM14.0625 4.5C14.6188 4.5 15.1625 4.66495 15.625 4.97399C16.0876 5.28303 16.448 5.72229 16.6609 6.2362C16.8738 6.75012 16.9295 7.31562 16.821 7.86119C16.7124 8.40676 16.4446 8.9079 16.0512 9.30124C15.6579 9.69457 15.1568 9.96244 14.6112 10.071C14.0656 10.1795 13.5001 10.1238 12.9862 9.91091C12.4723 9.69804 12.033 9.33755 11.724 8.87504C11.4149 8.41253 11.25 7.86876 11.25 7.3125C11.25 6.56658 11.5463 5.85121 12.0738 5.32376C12.6012 4.79632 13.3166 4.5 14.0625 4.5ZM9.5625 15.75V14.0625C9.5625 13.3166 9.85882 12.6012 10.3863 12.0738C10.9137 11.5463 11.6291 11.25 12.375 11.25H15.75C16.4959 11.25 17.2113 11.5463 17.7387 12.0738C18.2662 12.6012 18.5625 13.3166 18.5625 14.0625V15.75H9.5625ZM26.4375 11.8125H19.6875V10.6875H26.4375V11.8125ZM26.4375 7.3125H19.6875V6.1875H26.4375V7.3125Z" fill="#0E0C0D"/></svg>