<?xml version="1.0" standalone="no"?>
<!DOCTYPE svg PUBLIC "-//W3C//DTD SVG 20010904//EN"
 "http://www.w3.org/TR/2001/REC-SVG-20010904/DTD/svg10.dtd">
<svg version="1.0" xmlns="http://www.w3.org/2000/svg"
 width="700.000000pt" height="700.000000pt" viewBox="0 0 700.000000 700.000000"
 preserveAspectRatio="xMidYMid meet">
<metadata>
Created by potrace 1.11, written by Peter Selinger 2001-2013
</metadata>
<g transform="translate(0.000000,700.000000) scale(0.100000,-0.100000)"
fill="#000000" stroke="none">
<path d="M984 4463 c-12 -2 -30 -13 -40 -25 -18 -19 -19 -61 -22 -969 -3
-1053 -6 -1002 61 -1014 18 -4 291 -5 607 -3 557 4 577 5 655 26 222 62 337
168 392 362 16 59 18 112 18 615 0 496 -2 556 -18 615 -42 155 -121 255 -249
315 -94 44 -167 63 -298 75 -99 9 -1060 12 -1106 3z m976 -548 c59 -31 60 -36
60 -460 0 -331 -2 -390 -16 -416 -26 -51 -62 -59 -264 -59 l-180 0 0 475 0
475 185 0 c147 0 192 -3 215 -15z"/>
<path d="M3014 4456 c-17 -8 -34 -21 -38 -31 -3 -9 -6 -115 -6 -236 0 -281
-18 -259 205 -259 l165 0 0 -470 0 -470 -132 0 c-147 -1 -206 -10 -225 -36
-10 -13 -13 -76 -13 -240 l0 -223 27 -20 c26 -21 30 -21 674 -19 607 3 649 4
666 21 16 16 18 42 21 233 4 243 1 255 -65 273 -21 6 -98 11 -170 11 l-133 0
0 470 0 470 164 0 165 0 20 26 c20 25 21 39 21 240 0 211 0 213 -24 241 l-24
28 -634 2 c-517 2 -639 0 -664 -11z"/>
<path d="M5223 4459 c-296 -28 -466 -153 -530 -389 -16 -59 -18 -119 -18 -610
0 -488 2 -552 18 -614 49 -193 170 -308 387 -367 82 -22 103 -23 538 -27 484
-4 499 -3 521 44 16 36 15 411 -2 444 -22 44 -58 49 -407 49 -304 1 -327 2
-357 21 -59 35 -58 31 -58 445 0 352 1 383 18 409 37 56 60 60 434 66 311 4
344 7 360 23 16 16 18 42 21 225 2 128 -1 218 -7 235 -21 54 -43 57 -458 56
-208 -1 -415 -5 -460 -10z"/>
</g>
</svg>
