<svg width="24" height="28" viewBox="0 0 24 28" fill="none" xmlns="http://www.w3.org/2000/svg"><path d="M12 0.249817C9.51358 0.249817 7.12901 1.23754 5.37086 2.99569C3.61271 4.75384 2.62499 7.13841 2.62499 9.62482V16.9373L0.549986 20.0623C0.301275 20.4458 0.160203 20.8891 0.141533 21.3457C0.122863 21.8024 0.227281 22.2557 0.44386 22.6582C0.660439 23.0607 0.981218 23.3976 1.37263 23.6336C1.76404 23.8696 2.21169 23.9961 2.66874 23.9998H8.24998C8.24998 24.9944 8.64507 25.9482 9.34833 26.6515C10.0516 27.3547 11.0054 27.7498 12 27.7498C12.9945 27.7498 13.9484 27.3547 14.6516 26.6515C15.3549 25.9482 15.75 24.9944 15.75 23.9998H21.3312C21.7912 23.9983 22.2422 23.8724 22.6365 23.6354C23.0308 23.3984 23.3536 23.0592 23.5707 22.6537C23.7879 22.2482 23.8913 21.7915 23.8701 21.332C23.8488 20.8725 23.7037 20.4273 23.45 20.0436L21.375 16.9373V9.62482C21.375 7.13841 20.3873 4.75384 18.6291 2.99569C16.871 1.23754 14.4864 0.249817 12 0.249817ZM12 26.4998C11.3369 26.4998 10.7011 26.2364 10.2322 25.7676C9.76338 25.2987 9.49998 24.6629 9.49998 23.9998H14.5C14.5 24.6629 14.2366 25.2987 13.7678 25.7676C13.2989 26.2364 12.663 26.4998 12 26.4998ZM22.4062 20.7373C22.5511 20.9488 22.6275 21.1997 22.625 21.4561C22.625 21.7992 22.4887 22.1283 22.2461 22.3709C22.0034 22.6135 21.6744 22.7498 21.3312 22.7498H2.66874C2.32561 22.7498 1.99654 22.6135 1.75392 22.3709C1.51129 22.1283 1.37499 21.7992 1.37499 21.4561C1.37247 21.1997 1.44884 20.9488 1.59374 20.7373L3.76874 17.4686C3.83708 17.3669 3.87403 17.2473 3.87499 17.1248V9.62482C3.87499 7.46993 4.73101 5.40331 6.25474 3.87957C7.77848 2.35584 9.8451 1.49982 12 1.49982C14.1549 1.49982 16.2215 2.35584 17.7452 3.87957C19.269 5.40331 20.125 7.46993 20.125 9.62482V17.1248C20.1259 17.2473 20.1629 17.3669 20.2312 17.4686L22.4062 20.7373Z" fill="black"/></svg>