<svg width="24" height="30" viewBox="0 0 24 30" fill="none" xmlns="http://www.w3.org/2000/svg"><g style="mix-blend-mode:luminosity"><path fill-rule="evenodd" clip-rule="evenodd" d="M23.9951 11.7004C23.9951 14.1363 23.9889 16.5715 24 19.0074C24.0027 19.4974 23.8237 19.8177 23.417 20.0613C19.7898 22.2401 16.1689 24.4302 12.5486 26.6197C12.2613 26.7937 11.976 26.8896 11.6568 26.7376C11.5811 26.7021 11.5103 26.6566 11.4381 26.6126C7.78321 24.4075 4.12967 22.2003 0.474044 19.9959C0.15547 19.8035 0.000693961 19.535 0.00138802 19.1458C0.00416427 15.3287 0.00485843 11.5108 0 7.69289C0 7.2817 0.15894 6.99621 0.494866 6.79381C4.15812 4.58446 7.82208 2.3744 11.4819 0.159377C11.8393 -0.0572259 12.1676 -0.0508347 12.523 0.165058C14.4865 1.35886 16.4576 2.53916 18.4197 3.73581C18.6293 3.86364 18.7806 3.87642 18.9923 3.73793C19.6433 3.31396 20.3145 2.92621 20.9683 2.50934C21.3299 2.27853 21.6707 2.27001 22.0344 2.49868C22.5168 2.80193 23.0047 3.09665 23.4975 3.38214C23.8396 3.58028 23.9986 3.8679 23.9979 4.27625C23.993 6.7512 23.9951 9.22615 23.9951 11.7004ZM12.337 4.90617C12.337 5.06383 12.337 5.15899 12.337 5.25415C12.337 6.12483 12.346 6.99408 12.3307 7.86404C12.3265 8.10266 12.4119 8.22268 12.6 8.3363C14.6267 9.55141 16.6485 10.775 18.6723 11.9958C18.7522 12.0441 18.8368 12.0867 18.9076 12.1471C19.1263 12.3324 19.0784 12.6279 18.8223 12.7529C18.6654 12.8289 18.5127 12.9176 18.3704 13.0192C18.1192 13.1989 17.879 13.3963 17.6306 13.5816C17.3557 13.7862 17.2294 13.7457 17.117 13.414C16.9379 12.8864 16.7658 12.3559 16.5881 11.8275C16.5652 11.7608 16.5298 11.6983 16.4937 11.6194C16.3896 11.694 16.3056 11.7529 16.2244 11.8154C15.9856 11.998 15.7517 12.1861 15.5095 12.363C15.2992 12.5164 15.1528 12.4638 15.0563 12.2153C15.0396 12.1712 15.0278 12.1237 15.0133 12.0775C14.8328 11.53 14.6496 10.9831 14.4726 10.4349C14.4295 10.3013 14.3671 10.2005 14.2428 10.1274C13.6723 9.79074 13.1067 9.44346 12.5375 9.10329C12.4862 9.07204 12.4258 9.05855 12.3529 9.03085C12.3467 9.13241 12.3383 9.20911 12.3383 9.28438C12.3376 10.1927 12.3432 11.1024 12.3328 12.0107C12.3314 12.2025 12.3946 12.3047 12.5493 12.3978C15.8788 14.4019 19.2047 16.411 22.532 18.4186C22.6084 18.4655 22.6903 18.5038 22.7881 18.5557C22.7992 18.4662 22.8124 18.4108 22.8124 18.3561C22.8131 14.9054 22.8124 11.454 22.8159 8.00252C22.8159 7.85836 22.7687 7.77171 22.65 7.70354C22.3425 7.526 22.0344 7.34916 21.7387 7.15316C21.577 7.04521 21.4541 7.04663 21.2883 7.15244C20.554 7.61761 19.8044 8.05721 19.0735 8.52876C18.8195 8.6921 18.6217 8.69352 18.3621 8.53515C16.4645 7.37544 14.5593 6.23064 12.6555 5.08229C12.5681 5.02903 12.4785 4.98358 12.337 4.90617ZM1.17158 14.4779C1.29443 14.414 1.368 14.3813 1.4374 14.3394C4.77792 12.3225 8.11844 10.3042 11.4617 8.29156C11.6124 8.20137 11.6602 8.09768 11.6589 7.9244C11.6519 7.00686 11.6561 6.0879 11.6554 5.17106C11.6554 5.09792 11.6429 5.02548 11.6346 4.92392C11.5381 4.97364 11.4631 5.00701 11.3937 5.04749C11.1133 5.21439 10.8336 5.38553 10.5539 5.55385C7.50975 7.39248 4.4649 9.23254 1.41589 11.0648C1.22988 11.1763 1.16325 11.297 1.16672 11.5207C1.17921 12.3999 1.17158 13.2791 1.17158 14.1576C1.17158 14.2435 1.17158 14.3302 1.17158 14.4779ZM1.17158 18.5742C1.30484 18.5024 1.38674 18.4627 1.46447 18.4172C1.7768 18.229 2.08704 18.0408 2.39868 17.8519C5.40466 16.0367 8.40926 14.2194 11.4173 12.4106C11.5894 12.3069 11.6637 12.1989 11.6609 11.9845C11.6491 11.096 11.6568 10.2062 11.6554 9.31776C11.6554 9.22615 11.6457 9.13383 11.6387 9.00742C11.5193 9.07275 11.4305 9.1182 11.3451 9.16933C10.6011 9.61816 9.85846 10.0677 9.11581 10.5165C6.5575 12.0604 4.00127 13.6079 1.43879 15.1433C1.23404 15.2669 1.16255 15.3997 1.16672 15.6433C1.18129 16.4933 1.17227 17.3441 1.17227 18.1935C1.17158 18.2979 1.17158 18.4037 1.17158 18.5742ZM1.1917 10.3958C4.70713 8.2731 8.17535 6.1788 11.6325 4.09089C11.6818 3.66195 11.6651 1.74448 11.6082 1.52362C11.5332 1.56339 11.4597 1.59748 11.3903 1.64009C8.05667 3.652 4.72379 5.66605 1.38812 7.67513C1.23335 7.76816 1.16394 7.86404 1.16741 8.05862C1.17921 8.74394 1.17158 9.43068 1.17296 10.1167C1.17227 10.1891 1.18199 10.2637 1.1917 10.3958ZM12.364 1.49592C12.3494 1.58682 12.3383 1.62446 12.3383 1.66139C12.337 2.40494 12.3397 3.1492 12.3342 3.89346C12.3335 4.04047 12.3939 4.11575 12.5105 4.18534C13.1684 4.57594 13.8222 4.97576 14.4774 5.37133C14.6447 5.47218 14.8127 5.57018 14.9848 5.67244C15.4234 5.40258 15.8545 5.14124 16.2813 4.87279C16.4486 4.76768 16.6061 4.7613 16.7755 4.86427C17.4536 5.27617 18.1331 5.68736 18.8139 6.09358C18.9868 6.19584 19.0569 6.34214 19.0527 6.54525C19.0458 6.84494 19.0492 7.14392 19.0527 7.44362C19.0527 7.51605 19.0666 7.58707 19.0784 7.69786C19.6739 7.33567 20.2395 6.99266 20.8364 6.612C17.9915 4.8941 15.1965 3.20602 12.364 1.49592ZM19.4303 4.91185C19.7016 5.14834 22.5959 6.8769 22.7881 6.92022C22.7951 6.89252 22.8083 6.86554 22.8083 6.83784C22.8103 6.0744 22.809 5.31097 22.8145 4.54753C22.8152 4.41899 22.7541 4.3572 22.659 4.30181C22.3377 4.11006 22.0143 3.92329 21.7012 3.71947C21.5659 3.63212 21.4632 3.63141 21.3244 3.71947C20.7483 4.08592 20.1646 4.43746 19.5843 4.79609C19.5309 4.82876 19.4837 4.87137 19.4303 4.91185ZM18.3767 7.72484C18.3767 7.35982 18.3718 7.07077 18.3781 6.78244C18.3815 6.65035 18.3024 6.59638 18.2122 6.54241C17.9082 6.35989 17.6042 6.17738 17.3009 5.99415C17.0462 5.84076 16.7914 5.68878 16.5339 5.53396C16.2452 5.7115 15.9704 5.88195 15.6511 6.07937C16.5735 6.63544 17.4466 7.1631 18.3767 7.72484ZM16.1765 11.1969C15.7823 10.9597 15.4394 10.753 15.0958 10.5457C15.0806 10.5613 15.0646 10.5769 15.0487 10.5925C15.1736 10.9689 15.2978 11.346 15.4373 11.7679C15.6879 11.5747 15.9135 11.4 16.1765 11.1969ZM17.1489 11.787C17.1975 12.1464 17.4258 12.8083 17.5598 12.9858C17.777 12.8175 17.9936 12.6492 18.2504 12.451C17.8596 12.2153 17.516 12.0086 17.1489 11.787Z" fill="#0F1029"/><path fill-rule="evenodd" clip-rule="evenodd" d="M12.3369 4.90601C12.4785 4.98412 12.568 5.02886 12.6541 5.08071C14.5572 6.22906 16.4631 7.37386 18.3606 8.53357C18.6202 8.69194 18.818 8.69051 19.0721 8.52717C19.8029 8.05633 20.5525 7.61673 21.2868 7.15086C21.4527 7.04504 21.5755 7.04362 21.7373 7.15157C22.0329 7.34758 22.3418 7.52441 22.6486 7.70195C22.7666 7.77084 22.8144 7.85748 22.8144 8.00094C22.811 11.4524 22.8124 14.9031 22.811 18.3545C22.811 18.4092 22.7978 18.4646 22.7867 18.5541C22.6881 18.5015 22.6069 18.4639 22.5306 18.417C19.2032 16.4094 15.878 14.4003 12.5479 12.3962C12.3924 12.3032 12.3292 12.2009 12.3313 12.0091C12.3417 11.1008 12.3362 10.1911 12.3369 9.2828C12.3369 9.20752 12.3452 9.13082 12.3515 9.02927C12.4243 9.05696 12.484 9.07046 12.5361 9.10171C13.1045 9.44188 13.6702 9.78986 14.2414 10.1258C14.3649 10.1989 14.4274 10.2998 14.4711 10.4333C14.6481 10.9822 14.8313 11.5284 15.0118 12.0759C15.0264 12.1221 15.0382 12.1697 15.0548 12.2137C15.1513 12.4622 15.2978 12.5148 15.5081 12.3614C15.7503 12.1846 15.9849 11.9964 16.2229 11.8139C16.3048 11.7514 16.3881 11.6931 16.4922 11.6178C16.5283 11.6967 16.5637 11.7592 16.5866 11.8259C16.7636 12.355 16.9364 12.8848 17.1155 13.4125C17.2286 13.7441 17.355 13.7846 17.6291 13.5801C17.8776 13.3947 18.1177 13.1973 18.369 13.0176C18.5113 12.9153 18.6646 12.8273 18.8208 12.7513C19.0769 12.627 19.1248 12.3309 18.9062 12.1455C18.8347 12.0858 18.75 12.0425 18.6709 11.9942C16.6477 10.7727 14.6252 9.54982 12.5985 8.33472C12.4105 8.22109 12.3251 8.10107 12.3292 7.86245C12.3445 6.99249 12.3355 6.12253 12.3355 5.25257C12.3369 5.15883 12.3369 5.06295 12.3369 4.90601Z" fill="#FF3034"/><path fill-rule="evenodd" clip-rule="evenodd" d="M1.17173 14.4778C1.17173 14.3301 1.17173 14.2441 1.17173 14.1575C1.17173 13.279 1.17937 12.3991 1.16687 11.5206C1.1634 11.2976 1.23073 11.1769 1.41604 11.0647C4.46506 9.23173 7.50921 7.39239 10.5541 5.55375C10.8338 5.38544 11.1135 5.21429 11.3939 5.0474C11.4633 5.00621 11.5382 4.97354 11.6347 4.92383C11.6437 5.02538 11.6555 5.09782 11.6555 5.17097C11.6562 6.08851 11.6528 7.00676 11.659 7.92431C11.6604 8.09759 11.6125 8.20127 11.4619 8.29146C8.1186 10.3041 4.77808 12.3224 1.43756 14.3393C1.36815 14.3812 1.29458 14.4132 1.17173 14.4778Z" fill="#FF3034"/><path fill-rule="evenodd" clip-rule="evenodd" d="M1.17149 18.5741C1.17149 18.4036 1.17149 18.2985 1.17149 18.1941C1.17149 17.3441 1.18052 16.4933 1.16594 15.6439C1.16178 15.4003 1.23327 15.2682 1.43801 15.1439C4.00049 13.6086 6.55672 12.0611 9.11503 10.5172C9.85768 10.0676 10.601 9.6181 11.3444 9.16998C11.4304 9.11884 11.5186 9.0741 11.6379 9.00806C11.6449 9.13447 11.6546 9.22608 11.6546 9.3184C11.656 10.2068 11.6484 11.0967 11.6602 11.9851C11.6629 12.1989 11.5887 12.3075 11.4165 12.4112C8.40848 14.22 5.40388 16.0373 2.3979 17.8525C2.08627 18.0414 1.77602 18.2296 1.4637 18.4178C1.38596 18.4626 1.30475 18.5023 1.17149 18.5741Z" fill="#FF3034"/><path fill-rule="evenodd" clip-rule="evenodd" d="M1.19161 10.3957C1.18259 10.2629 1.17287 10.1891 1.17287 10.1159C1.17148 9.42988 1.17912 8.74315 1.16732 8.05783C1.16454 7.86324 1.23395 7.76737 1.38803 7.67434C4.72369 5.66526 8.05658 3.65121 11.3902 1.6393C11.4596 1.5974 11.5338 1.5626 11.6081 1.52283C11.665 1.7444 11.6817 3.66187 11.6324 4.0901C8.17526 6.17872 4.70703 8.27372 1.19161 10.3957Z" fill="#A41923"/><path fill-rule="evenodd" clip-rule="evenodd" d="M12.3641 1.49585C15.1965 3.20594 17.9915 4.89402 20.8365 6.61193C20.2403 6.99258 19.6746 7.33559 19.0784 7.69778C19.0666 7.58699 19.0534 7.51527 19.0528 7.44354C19.05 7.14385 19.0465 6.84486 19.0528 6.54517C19.0569 6.34206 18.9868 6.19577 18.814 6.0935C18.1331 5.68657 17.4536 5.27539 16.7755 4.8642C16.6055 4.76051 16.4486 4.7669 16.2814 4.87272C15.8545 5.14116 15.4242 5.4025 14.9849 5.67237C14.8127 5.57011 14.6441 5.4721 14.4775 5.37126C13.8223 4.97569 13.1685 4.57587 12.5105 4.18527C12.3939 4.11567 12.3335 4.0404 12.3342 3.89339C12.3405 3.14913 12.337 2.40558 12.3384 1.66132C12.3384 1.62368 12.3495 1.58675 12.3641 1.49585Z" fill="#A41923"/><path fill-rule="evenodd" clip-rule="evenodd" d="M19.4304 4.9117C19.4839 4.87122 19.5311 4.82861 19.5845 4.79524C20.1647 4.4366 20.7484 4.08506 21.3245 3.71861C21.4633 3.63055 21.566 3.63126 21.7014 3.71861C22.0151 3.92243 22.3378 4.10921 22.6592 4.30095C22.7536 4.35635 22.8154 4.41813 22.8147 4.54667C22.8098 5.31011 22.8105 6.07355 22.8084 6.83698C22.8084 6.86468 22.7952 6.89237 22.7883 6.91936C22.596 6.87675 19.7018 5.14819 19.4304 4.9117Z" fill="#A41923"/><path fill-rule="evenodd" clip-rule="evenodd" d="M18.3765 7.72482C17.4457 7.16307 16.5733 6.63541 15.6509 6.07935C15.9701 5.88192 16.245 5.71148 16.5337 5.53394C16.7919 5.68875 17.0459 5.84073 17.3007 5.99413C17.6047 6.17735 17.908 6.36058 18.212 6.54238C18.3022 6.59635 18.3813 6.65033 18.3778 6.78242C18.3716 7.07075 18.3765 7.35979 18.3765 7.72482Z" fill="white"/><path fill-rule="evenodd" clip-rule="evenodd" d="M16.1762 11.1969C15.9139 11.4 15.6883 11.5747 15.4377 11.7679C15.2982 11.3453 15.174 10.9689 15.0491 10.5925C15.065 10.5769 15.0803 10.5613 15.0963 10.5457C15.4391 10.7523 15.782 10.959 16.1762 11.1969Z" fill="white"/><path fill-rule="evenodd" clip-rule="evenodd" d="M17.1489 11.7871C17.5154 12.0087 17.8596 12.2153 18.2504 12.4504C17.9936 12.6485 17.7771 12.8176 17.5598 12.9852C17.4266 12.8083 17.1982 12.1472 17.1489 11.7871Z" fill="white"/><path d="M1.64307 19.3435L11.9508 12.8396L22.4766 19.3435L11.9508 25.3499L1.64307 19.3435Z" fill="#D41718"/></g></svg>